<?xml version="1.0" encoding="UTF-8" standalone="no"?>
<svg
   xmlns:dc="http://purl.org/dc/elements/1.1/"
   xmlns:cc="http://creativecommons.org/ns#"
   xmlns:rdf="http://www.w3.org/1999/02/22-rdf-syntax-ns#"
   xmlns:svg="http://www.w3.org/2000/svg"
   xmlns="http://www.w3.org/2000/svg"
   xmlns:sodipodi="http://sodipodi.sourceforge.net/DTD/sodipodi-0.dtd"
   xmlns:inkscape="http://www.inkscape.org/namespaces/inkscape"
   inkscape:version="1.0 (4035a4fb49, 2020-05-01)"
   sodipodi:docname="keyring.svg"
   id="svg869"
   version="1.1"
   height="1122.5196850393702"
   width="793.7007874015749"
   viewBox="0 0 793.7007874015749 1122.5196850393702">
  <metadata
     id="metadata873">
    <rdf:RDF>
      <cc:Work
         rdf:about="">
        <dc:format>image/svg+xml</dc:format>
        <dc:type
           rdf:resource="http://purl.org/dc/dcmitype/StillImage" />
      </cc:Work>
    </rdf:RDF>
  </metadata>
  <sodipodi:namedview
     inkscape:current-layer="g865"
     inkscape:window-maximized="1"
     inkscape:window-y="-8"
     inkscape:window-x="1912"
     inkscape:cy="75.988976"
     inkscape:cx="38.99474"
     inkscape:zoom="4.2835117"
     showgrid="false"
     id="namedview871"
     inkscape:window-height="1017"
     inkscape:window-width="1920"
     inkscape:pageshadow="2"
     inkscape:pageopacity="0"
     guidetolerance="10"
     gridtolerance="10"
     objecttolerance="10"
     borderopacity="1"
     bordercolor="#666666"
     pagecolor="#ffffff" />
  <defs
     id="defs845">
    <marker
       style="overflow:visible"
       refY="0.0"
       refX="0.0"
       orient="auto"
       id="DistanceX">
      <path
         id="path833"
         style="stroke:#000000; stroke-width:0.5"
         d="M 3,-3 L -3,3 M 0,-5 L  0,5" />
    </marker>
    <pattern
       y="0"
       x="0"
       height="8"
       width="8"
       patternUnits="userSpaceOnUse"
       id="Hatch">
      <path
         id="path836"
         linecap="square"
         stroke-width="0.25"
         stroke="#000000"
         d="M8 4 l-4,4" />
      <path
         id="path838"
         linecap="square"
         stroke-width="0.25"
         stroke="#000000"
         d="M6 2 l-4,4" />
      <path
         id="path840"
         linecap="square"
         stroke-width="0.25"
         stroke="#000000"
         d="M4 0 l-4,4" />
    </pattern>
    <symbol
       id="*MODEL_SPACE" />
    <symbol
       id="*PAPER_SPACE" />
  </defs>
  <g
     id="g865"
     inkscape:label="0"
     inkscape:groupmode="layer">
    <path
       id="path847"
       style="fill:none;stroke:#000000"
       d="M 137.9708,48.822368 105.72195,139.84414 A 66.141732,66.141732 0 0 0 137.9708,48.822368 Z" />
    <path
       id="path849"
       style="fill:none;stroke:#000000"
       d="m 105.72195,18.629298 a 66.141732,66.141732 0 0 1 25.80072,20.09933 L 100.70979,125.69739 84.248845,79.236718 Z" />
    <path
       id="path851"
       style="fill:none;stroke:#000000"
       d="M 57.763585,125.69739 72.550665,83.961118 H 42.976495 Z" />
    <path
       id="path853"
       style="fill:none;stroke:#000000"
       d="m 61.657755,15.473788 a 66.141732,66.141732 0 0 1 35.15785,0 l -17.57892,49.61618 z" />
    <path
       id="path855"
       style="fill:none;stroke:#000000"
       d="M 96.815605,142.99964 79.236685,93.383458 61.657755,142.99964 a 66.141732,66.141732 0 0 0 35.15785,0 z" />
    <path
       id="path857"
       style="fill:#000000;stroke:#000000"
       d="M 52.751415,139.84414 20.502565,48.822368 a 66.141732,66.141732 0 0 0 32.24885,91.021772 z" />
    <path
       id="path859"
       style="fill:none;stroke:#000000"
       d="m 39.628795,74.512308 h 32.92187 l -19.79925,-55.88301 a 66.141732,66.141732 0 0 0 -25.80071,20.09933 z" />
    <path
       id="path861"
       style="fill:none;stroke:#fe0000;stroke-opacity:1"
       d="m 154.82724,79.236718 a 75.590551,75.590551 0 1 0 -151.1811047,0 75.590551,75.590551 0 1 0 151.1811047,0 z" />
    <path
       id="path863"
       style="fill:none;stroke:#ff0000;stroke-opacity:1"
       d="m 86.795735,135.92963 a 7.559055,7.559055 0 1 0 -15.11811,0 7.559055,7.559055 0 1 0 15.11811,0 z" />
    <path
       id="path885"
       d="m 33.975494,56.710759 c -3.338382,-9.442764 -6.102197,-17.363592 -6.141812,-17.601842 -0.04546,-0.273423 0.700865,-1.32843 2.023641,-2.860616 5.261626,-6.0946 11.935283,-11.33412 19.322324,-15.170048 1.732138,-0.899462 3.177004,-1.59778 3.210813,-1.551818 0.03381,0.04596 3.981088,11.166762 8.771735,24.712891 4.790648,13.546128 9.113431,25.758655 9.606188,27.138947 l 0.895919,2.509623 -15.80951,-0.0042 -15.809512,-0.0042 -6.069786,-17.168661 z"
       style="fill:#000000;stroke:#000000;stroke-width:0.233453;stroke-opacity:1" />
    <path
       id="path887"
       d="M 70.876262,39.590208 C 66.275139,26.602723 62.555749,15.931433 62.61095,15.876232 c 0.186137,-0.186136 7.063365,-1.488692 9.417434,-1.783673 2.981129,-0.373556 11.438142,-0.371217 14.474105,0.004 2.195699,0.271371 9.224257,1.586491 9.395829,1.758063 0.04332,0.04332 -3.51002,10.203276 -7.896302,22.577686 -4.386285,12.374408 -8.151691,23.010256 -8.36757,23.635218 l -0.392507,1.136289 z"
       style="fill:#000000;stroke:#000000;stroke-width:0.233453;stroke-opacity:1" />
    <path
       id="path889"
       d="m 100.21661,122.40393 c -0.250471,-0.68296 -3.794193,-10.67402 -7.874935,-22.20236 L 84.922142,79.240939 95.496281,49.39225 106.07042,19.543561 l 0.62203,0.216842 c 1.12629,0.392628 6.49346,3.411545 8.81476,4.958115 4.9128,3.273163 10.58605,8.353472 13.92105,12.466079 l 1.37108,1.69077 -14.99043,42.310679 c -8.24474,23.270874 -15.02339,42.344194 -15.06366,42.385154 -0.0403,0.041 -0.27817,-0.48431 -0.52864,-1.16727 z"
       style="fill:#000000;stroke:#000000;stroke-width:0.233453;stroke-opacity:1" />
    <path
       id="path891"
       d="m 106.92965,138.43404 c 0,-0.16612 31.04648,-87.733027 31.13774,-87.82428 0.15731,-0.15731 2.19878,4.725784 3.15546,7.547684 4.11504,12.138112 4.60644,24.893791 1.43708,37.303121 -1.18925,4.656405 -2.46249,8.092015 -4.68004,12.628245 -5.0288,10.28693 -12.92608,19.2874 -22.52919,25.67635 -3.41677,2.27317 -8.52105,5.06993 -8.52105,4.66888 z"
       style="fill:#000000;stroke:#000000;stroke-width:0.233453;stroke-opacity:1" />
    <path
       id="path893"
       d="m 76.463997,144.71226 c -4.424779,-0.24578 -13.18804,-1.62673 -13.72399,-2.16268 -0.139989,-0.13999 16.186675,-46.806315 16.477328,-47.096968 0.03265,-0.03265 3.806993,10.518598 8.387421,23.447228 4.580426,12.92863 8.25478,23.5774 8.16523,23.66392 -0.282656,0.2731 -5.646262,1.30961 -8.683863,1.67814 -3.068294,0.37225 -8.254177,0.60189 -10.622126,0.47036 z m 6.346341,-1.49253 c 1.801167,-0.88671 3.375673,-2.59044 4.052176,-4.38474 0.40923,-1.08541 0.484736,-1.69729 0.409111,-3.31542 -0.07963,-1.70381 -0.20353,-2.1918 -0.876389,-3.45166 -0.918127,-1.7191 -1.944574,-2.68899 -3.734074,-3.52833 -1.109824,-0.52055 -1.611256,-0.60724 -3.512452,-0.60724 -2.082967,0 -2.307523,0.0486 -3.693448,0.80007 -2.840029,1.53983 -4.297347,3.9923 -4.318551,7.26755 -0.0097,1.49503 0.09702,1.99399 0.6989,3.26835 2.024588,4.28664 6.800727,6.00627 10.974727,3.95142 z"
       style="fill:#000000;stroke:#000000;stroke-width:0.233453;stroke-opacity:1" />
    <path
       id="path895"
       d="M 50.847923,104.27611 C 47.042779,93.536841 43.958088,84.721557 43.993054,84.686591 c 0.03497,-0.03497 6.260499,-0.03647 13.834518,-0.0033 l 13.770943,0.06023 -6.916074,19.529299 -6.916073,19.52929 z"
       style="fill:#000000;stroke:#000000;stroke-width:0.233453;stroke-opacity:1" />
  </g>
  <desc
     id="desc867">keyring.dxf - scale = 1.000000, origin = (0.000000, 0.000000), method = manual</desc>
</svg>
