<?xml version="1.0" encoding="UTF-8" standalone="no"?>
<svg
   xmlns:dc="http://purl.org/dc/elements/1.1/"
   xmlns:cc="http://creativecommons.org/ns#"
   xmlns:rdf="http://www.w3.org/1999/02/22-rdf-syntax-ns#"
   xmlns:svg="http://www.w3.org/2000/svg"
   xmlns="http://www.w3.org/2000/svg"
   xmlns:sodipodi="http://sodipodi.sourceforge.net/DTD/sodipodi-0.dtd"
   xmlns:inkscape="http://www.inkscape.org/namespaces/inkscape"
   sodipodi:docname="marçal.svg"
   inkscape:version="1.0 (4035a4fb49, 2020-05-01)"
   id="svg8"
   version="1.1"
   viewBox="0 0 80.137436 28.667221"
   height="28.667221mm"
   width="80.137436mm">
  <defs
     id="defs2">
    <rect
       id="rect839"
       height="25.135418"
       width="50.270832"
       y="93.360123"
       x="90.147324" />
  </defs>
  <sodipodi:namedview
     fit-margin-bottom="0"
     fit-margin-right="0"
     fit-margin-left="0"
     fit-margin-top="0"
     inkscape:window-maximized="0"
     inkscape:window-y="0"
     inkscape:window-x="2128"
     inkscape:window-height="1040"
     inkscape:window-width="1375"
     showguides="false"
     showgrid="false"
     inkscape:document-rotation="0"
     inkscape:current-layer="layer1"
     inkscape:document-units="mm"
     inkscape:cy="52.265392"
     inkscape:cx="157.70229"
     inkscape:zoom="1.979899"
     inkscape:pageshadow="2"
     inkscape:pageopacity="0.0"
     borderopacity="1.0"
     bordercolor="#666666"
     pagecolor="#ffffff"
     id="base" />
  <metadata
     id="metadata5">
    <rdf:RDF>
      <cc:Work
         rdf:about="">
        <dc:format>image/svg+xml</dc:format>
        <dc:type
           rdf:resource="http://purl.org/dc/dcmitype/StillImage" />
        <dc:title></dc:title>
      </cc:Work>
    </rdf:RDF>
  </metadata>
  <g
     transform="translate(-20.288624,-34.890892)"
     id="layer1"
     inkscape:groupmode="layer"
     inkscape:label="Layer 1">
    <text
       style="font-size:10.5833px;line-height:1.25;font-family:'Amplify Personal Use Only';-inkscape-font-specification:'Amplify Personal Use Only';white-space:pre;shape-inside:url(#rect839);"
       id="text837"
       xml:space="preserve" />
    <text
       transform="translate(-19.087798,-10.961309)"
       id="text857"
       y="87.690468"
       x="47.625"
       style="font-size:35.2778px;line-height:1.25;font-family:'Amplify Personal Use Only';-inkscape-font-specification:'Amplify Personal Use Only';white-space:pre;inline-size:143.365;stroke:#000000;stroke-width:0.264583;stroke-opacity:1"
       xml:space="preserve" />
    <path
       transform="scale(0.26458333)"
       d="m 153.01367,132.37109 c -0.53333,0 -1.1102,0.0879 -1.73242,0.26563 -1.15556,0.26666 -2.13359,0.97921 -2.93359,2.13476 -3.46667,4.62223 -6.66628,9.86576 -9.59961,15.73243 -2.93334,5.86667 -5.77765,11.86666 -8.53321,18 -2.75555,6.04445 -5.42222,11.95659 -8,17.73437 -2.57778,5.77778 -5.24444,10.97738 -8,15.59961 -2.75555,4.53334 -5.59987,8.17804 -8.5332,10.93359 -2.93334,2.75556 -6.134894,4.13282 -9.601562,4.13282 -2.488889,0 -4.443011,-0.4451 -5.865234,-1.33399 -1.333334,-0.97777 -2.267447,-2.13346 -2.800782,-3.46679 -0.444454,-1.42223 -0.53229,-2.88733 -0.265624,-4.39844 0.266668,-1.51111 0.843532,-2.80052 1.732421,-3.86719 0.88889,-1.15556 2.044574,-1.95595 3.466797,-2.40039 1.422221,-0.53332 3.023003,-0.44353 4.800782,0.26758 1.066668,0.44444 1.910979,0.44444 2.533203,0 0.711109,-0.44445 1.110319,-1.06719 1.199219,-1.86719 0.17778,-0.8 1.3e-4,-1.64431 -0.5332,-2.5332 -0.444448,-0.88889 -1.244837,-1.60143 -2.400394,-2.13477 -1.244445,-0.44444 -2.933072,-0.70993 -5.066407,-0.79883 -2.133334,-0.17778 -4.310979,0.17752 -6.533203,1.06641 -2.222226,0.8 -4.222221,2.22313 -6,4.26758 -1.688889,1.95556 -2.710851,4.84379 -3.066406,8.66601 -0.266666,2.31112 -0.0012,4.48876 0.798828,6.53321 0.88889,1.95555 2.134375,3.6881 3.734375,5.19922 1.68889,1.42222 3.688887,2.5779 6,3.46679 2.311113,0.80001 4.800129,1.20117 7.466797,1.20117 2.666668,0 5.46705,-0.53489 8.40039,-1.60156 2.93333,-1.06667 5.95529,-3.02079 9.06641,-5.86523 3.11111,-2.84445 6.26679,-6.7566 9.46679,-11.73438 3.20001,-5.06667 6.48746,-11.55568 9.86524,-19.46679 -0.0889,3.55555 -0.39831,7.15633 -0.93164,10.80078 -0.53334,3.55555 -1.2,6.88888 -2,10 -0.71112,3.11111 -1.42366,5.86562 -2.13477,8.26562 -0.71111,2.4 -1.24405,4.17843 -1.59961,5.33399 -0.35555,1.15555 -0.35555,2.08966 0,2.80078 0.35556,0.7111 0.93438,1.15424 1.73438,1.33203 0.8,0.17777 1.68823,0.0899 2.66601,-0.26563 1.06667,-0.44444 2.04471,-1.24483 2.9336,-2.40039 0.88889,-1.15555 2.13242,-3.02183 3.73242,-5.59961 1.68889,-2.66666 3.42339,-5.51098 5.20117,-8.5332 1.77778,-3.02222 3.4664,-5.95633 5.06641,-8.80078 1.68889,-2.93334 3.02222,-5.28863 4,-7.06641 -1.06667,4.00001 -1.86706,7.95608 -2.40039,11.86719 -0.44444,3.91111 -0.40053,7.42209 0.13281,10.5332 0.62222,3.11112 1.82183,5.64406 3.59961,7.59961 1.86666,1.95556 4.5792,2.9336 8.13476,2.9336 1.6,0 3.06706,-0.13373 4.40039,-0.40039 1.33334,-0.26667 2.62079,-0.71176 3.86524,-1.33399 1.24444,-0.62222 2.48993,-1.42066 3.73437,-2.39844 1.24445,-0.97777 2.6217,-2.17933 4.13282,-3.60156 0.26547,-0.25564 0.46806,-0.47354 0.72265,-0.72265 0.14998,0.82295 0.37327,1.59905 0.66992,2.32421 0.80001,1.95556 2.04354,3.46654 3.73243,4.53321 1.68889,1.06666 3.68888,1.59961 6,1.59961 3.28889,0 5.73398,-0.48902 7.33398,-1.4668 1.68889,-0.97778 3.24379,-1.91189 4.66602,-2.80078 0.71111,1.06666 1.55542,2.00078 2.5332,2.80078 0.97778,0.79999 2.17739,1.24509 3.59961,1.33398 1.42222,0.0889 3.06693,-0.2664 4.93359,-1.0664 1.86667,-0.8 4.00039,-2.26706 6.40039,-4.40039 1.24445,-1.06667 2.44405,-2.22235 3.59961,-3.4668 1.15556,-1.24444 2.2234,-2.44405 3.20117,-3.59961 1.06667,-1.15555 1.95491,-2.22339 2.66602,-3.20117 0.8,-1.06667 1.42274,-1.86706 1.86719,-2.40039 0.28047,-0.36061 0.44749,-0.71018 0.52929,-1.05274 0.77985,-1.09028 1.7132,-2.40575 3.39063,-4.8125 2.13333,-2.93333 4.31098,-6.13489 6.5332,-9.60156 1.86668,0.71111 2.75491,1.20013 2.66602,1.4668 0,0.17778 -0.3553,0.57895 -1.06641,1.20117 -2.48889,2.04445 -4.80026,4.53346 -6.93359,7.4668 -2.13334,2.93333 -3.77609,5.86549 -4.93164,8.79883 -1.15556,2.84444 -1.60066,5.5111 -1.33399,8 0.26667,2.48889 1.55608,4.31124 3.86719,5.46679 2.66667,1.42223 5.5549,1.68967 8.66602,0.80078 3.11111,-0.88889 6.13307,-2.31202 9.0664,-4.26757 2.27509,-1.53904 4.3744,-3.20325 6.29688,-4.99414 0.0613,0.33167 0.12216,0.66246 0.20508,0.99414 0.35555,1.68889 1.06614,3.19986 2.13281,4.5332 0.97777,1.33333 2.40091,2.31137 4.26758,2.93359 -0.71111,1.95556 -1.11033,3.64419 -1.19922,5.06641 -0.0889,1.51111 -0.26654,2.48915 -0.53321,2.93359 -0.26666,0.35556 -0.57803,0.44537 -0.93359,0.26758 -0.26667,-0.17778 -0.57804,-0.44522 -0.93359,-0.80078 -0.26667,-0.35556 -0.57804,-0.75477 -0.9336,-1.19922 -0.26665,-0.44444 -0.48822,-0.79974 -0.66601,-1.06641 -0.88889,-1.06667 -1.77908,-1.51177 -2.66797,-1.33398 -0.97778,0.26667 -1.82209,0.79961 -2.5332,1.59961 -0.71112,0.8 -1.20014,1.77804 -1.4668,2.93359 -0.35555,1.15556 -0.30968,2.17752 0.13476,3.06641 0.26667,0.62222 0.84354,1.28889 1.73243,2 0.8,0.71111 1.73411,1.28993 2.80078,1.73437 1.06667,0.53333 2.17647,0.8447 3.33203,0.9336 1.24444,0.0889 2.44405,-0.22249 3.59961,-0.9336 0.8,-0.53333 1.33489,-1.33372 1.60156,-2.40039 0.35555,-0.97777 0.62104,-2.13346 0.79883,-3.46679 0.26665,-1.24445 0.49018,-2.62171 0.66797,-4.13282 0.26667,-1.42222 0.70981,-2.80143 1.33203,-4.13476 2.57778,0.26666 5.42209,0.0451 8.5332,-0.66602 3.11111,-0.8 6.17894,-2.3549 9.20117,-4.66601 1.33332,-0.97778 2.62079,-2.04562 3.86524,-3.20117 0.10159,-0.0881 0.19436,-0.17563 0.29492,-0.26368 0.14223,1.05096 0.39148,2.03139 0.75977,2.93164 0.8,1.95556 2.04548,3.46654 3.73437,4.53321 1.6889,1.06666 3.6889,1.59961 6,1.59961 3.2889,0 5.73203,-0.48902 7.33203,-1.4668 1.6889,-0.97778 3.24576,-1.91189 4.66797,-2.80078 0.71113,1.06666 1.55544,2.00078 2.5332,2.80078 0.97779,0.79999 2.1774,1.24509 3.59961,1.33398 1.42224,0.0889 3.06694,-0.2664 4.9336,-1.0664 1.86666,-0.8 4.00039,-2.26706 6.40039,-4.40039 1.12825,-0.96707 2.21433,-2.01766 3.26953,-3.13086 0.27409,1.65985 0.93288,3.14854 1.98437,4.46289 0.88887,1.15555 2.1324,2.13359 3.73243,2.93359 1.6,0.8 3.37843,1.24509 5.33398,1.33399 2.04445,0.0889 4.2221,-0.26641 6.5332,-1.06641 2.4,-0.88889 4.79922,-2.39987 7.19922,-4.5332 1.24445,-1.06667 2.44601,-2.22235 3.60156,-3.4668 1.24445,-1.24444 2.35425,-2.44405 3.33204,-3.59961 0.97776,-1.15555 1.82209,-2.22339 2.5332,-3.20117 0.71113,-1.06667 1.28993,-1.86706 1.73437,-2.40039 0.62221,-0.8 0.75595,-1.55452 0.40039,-2.26563 -0.35555,-0.71111 -0.93437,-1.24405 -1.73437,-1.59961 -0.71111,-0.44445 -1.55541,-0.62209 -2.5332,-0.5332 -0.8889,0 -1.5995,0.39922 -2.13282,1.19922 -1.24444,1.51111 -2.80128,3.28954 -4.66797,5.33398 -1.77776,1.95556 -3.64403,3.68811 -5.5996,5.19922 -2.4,1.77778 -4.4,2.66602 -6,2.66602 -1.51111,-0.0889 -2.6668,-0.66575 -3.4668,-1.73242 -0.71111,-1.15556 -1.06641,-2.62261 -1.06641,-4.40039 0.0889,-1.77778 0.49007,-3.51033 1.20117,-5.19922 2.66666,-2.13334 5.37726,-4.35686 8.13282,-6.66797 2.31113,-1.95556 4.75622,-4.08733 7.33398,-6.39844 2.66668,-2.31111 5.15374,-4.53463 7.46484,-6.66797 3.37779,-3.2 6.13427,-6.17803 8.26758,-8.93359 2.13334,-2.75556 3.73413,-5.24457 4.80078,-7.4668 1.06663,-2.31111 1.64348,-4.35503 1.73243,-6.13281 0.17776,-1.86667 -0.0438,-3.51137 -0.66602,-4.93359 -0.71113,-1.68888 -1.60131,-2.62104 -2.66797,-2.79883 -1.06666,-0.26667 -2.66548,0.13255 -4.79883,1.19922 -2.84444,1.33333 -5.95619,3.42313 -9.33398,6.26757 -3.28887,2.84445 -6.62221,6.2217 -10,10.13282 -3.2889,3.82222 -6.4885,8.13359 -9.59961,12.93359 -3.11113,4.71111 -5.86758,9.73307 -8.26758,15.06641 -0.41386,0.87946 -0.78893,1.7986 -1.14258,2.73828 -1.00943,1.41079 -1.98097,2.59817 -2.91015,3.52734 -0.8889,0.88889 -2.09046,2.13438 -3.60157,3.73438 -0.8,0.8 -1.59843,1.42274 -2.39843,1.86718 -0.8,0.44444 -1.51256,0.70994 -2.13477,0.79883 -0.62236,0 -1.02158,-0.17765 -1.19922,-0.5332 -0.0889,-0.44445 0.1327,-1.15503 0.66602,-2.13281 0.62223,-0.88889 1.4226,-2.26615 2.40039,-4.13282 1.06666,-1.95555 2.17843,-4.00143 3.33398,-6.13476 1.15556,-2.22222 2.26535,-4.35399 3.33203,-6.39844 l 2.66797,-5.33398 c 0.71116,-1.24445 0.75503,-2.22248 0.13282,-2.9336 -0.53335,-0.7111 -1.37765,-1.11032 -2.53321,-1.19922 -1.06666,-0.17777 -2.22235,-1.2e-4 -3.46679,0.53321 -1.24445,0.44444 -2.13268,1.19895 -2.66602,2.26562 -0.62221,-0.62222 -1.28887,-1.15516 -2,-1.59961 -0.7111,-0.44444 -1.5115,-0.79974 -2.40039,-1.0664 -0.8,-0.35556 -1.77804,-0.53321 -2.93359,-0.53321 -1.6889,0 -3.6889,0.3553 -6,1.06641 -2.22221,0.71111 -4.5336,1.82287 -6.9336,3.33398 -2.4,1.51112 -4.79919,3.46524 -7.19922,5.86524 -2.3111,2.31111 -4.3111,5.06757 -6,8.26758 -0.0324,0.0584 -0.0598,0.11557 -0.0918,0.17382 -0.10164,0.11345 -0.20564,0.22252 -0.29688,0.35938 -0.62223,0.8 -1.37673,1.68824 -2.26562,2.66602 -0.8889,0.88889 -1.86694,1.823 -2.9336,2.80078 -1.06666,0.97778 -2.17843,1.91189 -3.33398,2.80078 -1.15558,0.88889 -2.26537,1.6434 -3.33203,2.26562 -2.75556,1.68888 -5.24458,2.623 -7.4668,2.80078 -2.22222,0.0889 -4.00065,-0.3562 -5.33398,-1.33398 -1.33334,-1.06667 -2.13373,-2.53372 -2.40039,-4.40039 -0.17778,-1.86667 0.40104,-4.00039 1.73437,-6.40039 1.06667,-1.86667 2.22235,-3.59922 3.4668,-5.19922 1.24444,-1.6 2.48797,-2.97726 3.73242,-4.13281 1.24444,-1.24445 2.44404,-2.17856 3.59961,-2.80078 1.15555,-0.71112 2.17754,-1.06641 3.0664,-1.06641 0.88895,0 1.29012,0.31137 1.20118,0.93359 -0.0889,0.53334 -0.44417,1.24393 -1.06641,2.13282 -0.62221,0.8 -1.37868,1.64431 -2.26758,2.5332 -0.88889,0.88889 -1.6434,1.64535 -2.26562,2.26758 -0.62222,0.53333 -0.79987,1.19999 -0.53321,2 0.26667,0.8 0.75374,1.51059 1.46485,2.13281 0.7111,0.53333 1.55737,0.8447 2.53515,0.93359 1.06666,0.0889 2.08862,-0.2664 3.06641,-1.0664 1.06666,-0.88889 2.26627,-2.13437 3.59961,-3.73438 1.33334,-1.68889 2.3553,-3.42144 3.06641,-5.19922 0.7111,-1.86666 0.93267,-3.60117 0.66601,-5.20117 -0.17779,-1.6 -1.24366,-2.79961 -3.19922,-3.59961 -2.13334,-0.8 -4.48864,-1.02157 -7.0664,-0.66601 -2.48891,0.35555 -4.97791,1.24379 -7.4668,2.66601 -2.4,1.42223 -4.7553,3.2885 -7.06641,5.59961 -2.22222,2.22223 -4.17829,4.80104 -5.86718,7.73438 -0.45305,0.80541 -0.84263,1.6579 -1.18164,2.54882 -1.15404,1.41889 -2.65922,3.05766 -4.51954,4.91797 -1.86666,1.77778 -3.77881,3.42248 -5.73437,4.9336 -1.95556,1.42222 -3.82183,2.48811 -5.59961,3.19922 -1.77778,0.7111 -3.15503,0.62326 -4.13281,-0.26563 -0.62224,-0.44444 -0.71203,-1.33463 -0.26758,-2.66797 0.53333,-1.42222 1.2898,-3.02105 2.26758,-4.79883 1.06666,-1.77777 2.3102,-3.646 3.73242,-5.60156 1.42222,-1.95556 2.79948,-3.77595 4.13281,-5.46484 1.42223,-1.77778 2.66771,-3.29071 3.73438,-4.53516 1.06667,-1.24445 1.77725,-2.04288 2.13281,-2.39844 0.53333,-0.53333 0.80078,-1.2 0.80078,-2 0,-0.88889 -0.26745,-1.68928 -0.80078,-2.40039 -0.53333,-0.71111 -1.28785,-1.24405 -2.26563,-1.59961 -0.97777,-0.44443 -2.17933,-0.53424 -3.60156,-0.26757 -1.33333,0.26666 -2.53294,0.26666 -3.59961,0 0.97778,-1.77778 1.82209,-3.42248 2.53321,-4.9336 0.7111,-1.51111 1.15619,-2.84444 1.33398,-4 0.35556,-1.95556 0.22183,-3.7779 -0.40039,-5.46679 -0.53333,-1.77778 -1.42157,-3.15504 -2.66602,-4.13282 -1.24444,-0.97778 -2.75542,-1.42288 -4.5332,-1.33398 -1.77778,0 -3.646,0.75646 -5.60156,2.26758 -1.33334,1.06666 -2.2655,2.48784 -2.79883,4.26562 -0.53333,1.68889 -0.80078,3.51124 -0.80078,5.4668 0.0889,1.95556 0.40026,3.91163 0.93359,5.86719 0.62223,1.86666 1.46654,3.46744 2.53321,4.80078 -1.68889,2.57778 -3.55517,5.42209 -5.59961,8.5332 -2.04445,3.02222 -3.95465,5.55517 -5.73243,7.59961 -0.11362,0.1515 -0.1982,0.3054 -0.27148,0.46094 -0.93886,1.28968 -1.84809,2.40278 -2.7168,3.27148 -0.88889,0.88889 -2.08849,2.13438 -3.59961,3.73438 -0.8,0.8 -1.60039,1.42274 -2.40039,1.86718 -0.8,0.44444 -1.51059,0.70994 -2.13281,0.79883 -0.62224,0 -1.02341,-0.17765 -1.20117,-0.5332 -0.0889,-0.44445 0.13463,-1.15503 0.66797,-2.13281 0.62222,-0.88889 1.42066,-2.26615 2.39844,-4.13282 1.06666,-1.95555 2.17842,-4.00143 3.33398,-6.13476 1.15556,-2.22222 2.26732,-4.35399 3.33398,-6.39844 1.06667,-2.13333 1.95491,-3.91176 2.66602,-5.33398 0.71112,-1.24445 0.75504,-2.22248 0.13281,-2.9336 -0.53333,-0.7111 -1.37765,-1.11032 -2.5332,-1.19922 -1.06667,-0.17777 -2.22235,-1.2e-4 -3.4668,0.53321 -1.24444,0.44444 -2.13268,1.19895 -2.66601,2.26562 -0.62223,-0.62222 -1.28889,-1.15516 -2,-1.59961 -0.71111,-0.44444 -1.5115,-0.79974 -2.40039,-1.0664 -0.80001,-0.35556 -1.77804,-0.53321 -2.9336,-0.53321 -1.68889,0 -3.68889,0.3553 -6,1.06641 -2.22222,0.71111 -4.53359,1.82287 -6.93359,3.33398 -2.4,1.51112 -4.79922,3.46524 -7.19922,5.86524 -2.31111,2.31111 -4.31111,5.06757 -6,8.26758 -0.0734,0.13212 -0.13816,0.26121 -0.20898,0.39258 -0.0372,0.0498 -0.0796,0.0872 -0.11524,0.14062 -1.24445,1.51111 -2.31228,2.75464 -3.20117,3.73242 -0.8,0.88889 -1.99961,2.13438 -3.59961,3.73438 -0.8,0.8 -1.73412,1.55451 -2.80078,2.26562 -0.97778,0.71111 -1.99974,1.33386 -3.06641,1.86719 -1.06666,0.53333 -2.08863,0.97843 -3.0664,1.33398 -0.88889,0.26667 -1.64341,0.40039 -2.26563,0.40039 -1.86667,0 -3.15607,-0.97803 -3.86719,-2.93359 -0.62223,-2.04445 -0.71202,-4.80091 -0.26757,-8.26758 0.53333,-3.55556 1.55724,-7.7332 3.06835,-12.5332 1.6,-4.88889 3.68785,-10.17829 6.26563,-15.86719 2.66667,-5.77778 5.82235,-11.86562 9.4668,-18.26562 3.64444,-6.4889 7.82208,-13.06771 12.5332,-19.73438 1.06665,-1.42222 1.51175,-2.57791 1.33398,-3.4668 -0.17778,-0.97777 -0.71072,-1.64444 -1.59961,-2 -0.88889,-0.35556 -1.95672,-0.39947 -3.20117,-0.13281 -1.24444,0.17778 -2.40013,0.71072 -3.46679,1.59961 -0.71111,0.62223 -1.8668,1.91163 -3.4668,3.86719 -1.51111,1.86667 -3.33346,4.22196 -5.4668,7.06641 -2.13333,2.75555 -4.48863,5.95516 -7.0664,9.5996 -2.57778,3.55557 -5.24445,7.29006 -8,11.20118 -2.75556,3.82222 -5.51007,7.77829 -8.26563,11.86718 -2.75556,4.00001 -5.3783,7.9102 -7.86719,11.73243 -0.17778,-2.57779 -0.044,-5.50994 0.40039,-8.79883 0.44445,-3.37778 1.06524,-6.84483 1.86524,-10.40039 0.8,-3.64445 1.73411,-7.24523 2.80078,-10.80078 1.06667,-3.64445 2.13255,-6.97778 3.19922,-10 1.15555,-3.02223 2.17947,-5.64497 3.06836,-7.86719 0.97778,-2.22222 1.77621,-3.77713 2.39844,-4.66602 0.88889,-1.33333 1.15633,-2.44509 0.80078,-3.33398 -0.26667,-0.97778 -0.88941,-1.64445 -1.86719,-2 -0.44445,-0.17778 -0.93346,-0.26563 -1.4668,-0.26563 z m 217.58985,32 c 0.17778,0.53334 1.3e-4,1.33373 -0.53321,2.40039 -0.44444,0.97778 -1.15505,2.13347 -2.13281,3.4668 -0.97779,1.24445 -2.13348,2.6217 -3.4668,4.13281 -1.24444,1.51111 -2.57776,2.97817 -4,4.40039 -3.28889,3.46667 -7.11124,7.19922 -11.46679,11.19922 1.42223,-2.75555 3.20066,-5.59986 5.33398,-8.5332 1.77779,-2.48889 3.99936,-5.24535 6.66602,-8.26758 2.66668,-3.02222 5.86629,-5.95438 9.59961,-8.79883 z m -131.60938,6.9336 c 0.53335,0 0.88864,0.31137 1.06641,0.93359 0.17779,0.53334 0.17779,1.24392 0,2.13281 -0.17778,0.88889 -0.48915,1.86693 -0.9336,2.9336 -0.44444,1.06667 -0.93346,2.13255 -1.46679,3.19922 -0.53333,-0.97778 -0.88862,-1.99974 -1.06641,-3.06641 -0.17779,-1.06667 -0.22171,-2.0447 -0.13281,-2.93359 0.17777,-0.97778 0.44327,-1.73229 0.79883,-2.26563 0.44444,-0.62222 1.02326,-0.93359 1.73437,-0.93359 z m -34.16406,19.07422 c 0.78333,-0.05 1.44323,0.12539 1.97656,0.52539 0.71111,0.53333 1.11032,1.37764 1.19922,2.5332 0.0889,1.06667 -0.0888,2.35607 -0.5332,3.86719 -0.35556,1.42222 -0.9783,3.02105 -1.86719,4.79883 -0.8,1.68889 -1.86589,3.37751 -3.19922,5.0664 -1.33333,1.77778 -2.71059,3.33464 -4.13281,4.66797 -1.33334,1.33333 -2.66667,2.39922 -4,3.19922 -1.33334,0.79999 -2.57882,1.28901 -3.73438,1.4668 -1.06666,0.17778 -1.91098,1.3e-4 -2.5332,-0.53321 -0.7111,-0.53333 -1.1562,-1.33372 -1.33398,-2.40039 -0.0889,-1.15555 0.0448,-2.44301 0.40039,-3.86523 0.44444,-1.51111 1.11111,-3.11189 2,-4.80078 0.88889,-1.68889 2.00065,-3.42144 3.33398,-5.19922 1.33333,-1.68889 2.66666,-3.20182 4,-4.53516 1.42222,-1.33333 2.75555,-2.39921 4,-3.19922 1.33333,-0.80001 2.53294,-1.28903 3.59961,-1.46679 0.28889,-0.0667 0.56311,-0.10834 0.82422,-0.125 z m 110.67773,0 c 0.78333,-0.05 1.44128,0.12539 1.97461,0.52539 0.71106,0.53333 1.11223,1.37764 1.20117,2.5332 0.0889,1.06667 -0.0888,2.35607 -0.5332,3.86719 -0.35555,1.42222 -0.97829,3.02105 -1.86719,4.79883 -0.8,1.68889 -1.86587,3.37751 -3.19922,5.0664 -1.33331,1.77778 -2.71253,3.33464 -4.13476,4.66797 -1.33332,1.33333 -2.66666,2.39922 -4,3.19922 -1.33334,0.79999 -2.57687,1.28901 -3.73242,1.4668 -1.06666,0.17778 -1.91097,1.3e-4 -2.53321,-0.53321 -0.711,-0.53333 -1.15609,-1.33372 -1.33398,-2.40039 -0.0889,-1.15555 0.0448,-2.44301 0.40039,-3.86523 0.44445,-1.51111 1.11113,-3.11189 2,-4.80078 0.88889,-1.68889 2.00064,-3.42144 3.33398,-5.19922 1.33335,-1.68889 2.66669,-3.20182 4,-4.53516 1.42224,-1.33333 2.75556,-2.39921 4,-3.19922 1.33332,-0.80001 2.53293,-1.28903 3.59961,-1.46679 0.28889,-0.0667 0.56311,-0.10834 0.82422,-0.125 z"
       style="font-size:35.2778px;line-height:1.25;font-family:'Amplify Personal Use Only';-inkscape-font-specification:'Amplify Personal Use Only';white-space:pre;inline-size:143.365;fill:none;stroke:#ff0000;stroke-width:0.999999;stroke-opacity:1"
       id="path1145" />
  </g>
</svg>
